<mxfile host="app.diagrams.net" modified="2023-06-24T22:42:30.527Z" agent="Mozilla/5.0 (Windows NT 10.0; Win64; x64) AppleWebKit/537.36 (KHTML, like Gecko) Chrome/114.0.0.0 Safari/537.36" etag="OuozLRc7yMNHAbd7fXRA" version="21.3.8" type="github">
  <diagram name="Página-1" id="I-GL20jmiEB7DU0dtDgM">
    <mxGraphModel dx="2210" dy="647" grid="1" gridSize="10" guides="1" tooltips="1" connect="1" arrows="1" fold="1" page="1" pageScale="1" pageWidth="827" pageHeight="1169" math="0" shadow="0">
      <root>
        <mxCell id="0" />
        <mxCell id="1" parent="0" />
        <mxCell id="Gjx-U46WMmEQtKeVA8HG-1" value="Middleware" style="shape=umlFrame;whiteSpace=wrap;html=1;pointerEvents=0;width=80;height=30;" vertex="1" parent="1">
          <mxGeometry x="70" y="80" width="790" height="400" as="geometry" />
        </mxCell>
        <mxCell id="Gjx-U46WMmEQtKeVA8HG-2" value="«API»&lt;br&gt;&lt;b&gt;Ticket&lt;/b&gt;" style="html=1;dropTarget=0;whiteSpace=wrap;" vertex="1" parent="1">
          <mxGeometry x="190" y="160" width="190" height="80" as="geometry" />
        </mxCell>
        <mxCell id="Gjx-U46WMmEQtKeVA8HG-3" value="" style="shape=module;jettyWidth=8;jettyHeight=4;" vertex="1" parent="Gjx-U46WMmEQtKeVA8HG-2">
          <mxGeometry x="1" width="20" height="20" relative="1" as="geometry">
            <mxPoint x="-27" y="7" as="offset" />
          </mxGeometry>
        </mxCell>
        <mxCell id="Gjx-U46WMmEQtKeVA8HG-5" value="«API»&lt;br&gt;&lt;b&gt;Ticket&lt;/b&gt;" style="html=1;dropTarget=0;whiteSpace=wrap;" vertex="1" parent="1">
          <mxGeometry x="190" y="280" width="190" height="80" as="geometry" />
        </mxCell>
        <mxCell id="Gjx-U46WMmEQtKeVA8HG-6" value="" style="shape=module;jettyWidth=8;jettyHeight=4;" vertex="1" parent="Gjx-U46WMmEQtKeVA8HG-5">
          <mxGeometry x="1" width="20" height="20" relative="1" as="geometry">
            <mxPoint x="-27" y="7" as="offset" />
          </mxGeometry>
        </mxCell>
        <mxCell id="Gjx-U46WMmEQtKeVA8HG-8" value="" style="strokeWidth=2;html=1;shape=mxgraph.flowchart.database;whiteSpace=wrap;" vertex="1" parent="1">
          <mxGeometry x="465" y="210" width="70" height="80" as="geometry" />
        </mxCell>
        <mxCell id="Gjx-U46WMmEQtKeVA8HG-9" value="Cache" style="text;strokeColor=none;align=center;fillColor=none;html=1;verticalAlign=middle;whiteSpace=wrap;rounded=0;" vertex="1" parent="1">
          <mxGeometry x="470" y="290" width="60" height="30" as="geometry" />
        </mxCell>
        <mxCell id="Gjx-U46WMmEQtKeVA8HG-11" value="«Component»&lt;br&gt;&lt;b&gt;Buffer&lt;/b&gt;" style="html=1;dropTarget=0;whiteSpace=wrap;" vertex="1" parent="1">
          <mxGeometry x="600" y="200" width="190" height="80" as="geometry" />
        </mxCell>
        <mxCell id="Gjx-U46WMmEQtKeVA8HG-12" value="" style="shape=module;jettyWidth=8;jettyHeight=4;" vertex="1" parent="Gjx-U46WMmEQtKeVA8HG-11">
          <mxGeometry x="1" width="20" height="20" relative="1" as="geometry">
            <mxPoint x="-27" y="7" as="offset" />
          </mxGeometry>
        </mxCell>
        <mxCell id="Gjx-U46WMmEQtKeVA8HG-13" value="«Component»&lt;br&gt;&lt;b&gt;Sistema legado&lt;/b&gt;" style="html=1;dropTarget=0;whiteSpace=wrap;" vertex="1" parent="1">
          <mxGeometry x="960" y="200" width="190" height="80" as="geometry" />
        </mxCell>
        <mxCell id="Gjx-U46WMmEQtKeVA8HG-14" value="" style="shape=module;jettyWidth=8;jettyHeight=4;" vertex="1" parent="Gjx-U46WMmEQtKeVA8HG-13">
          <mxGeometry x="1" width="20" height="20" relative="1" as="geometry">
            <mxPoint x="-27" y="7" as="offset" />
          </mxGeometry>
        </mxCell>
        <mxCell id="Gjx-U46WMmEQtKeVA8HG-15" value="«Component»&lt;br&gt;&lt;b&gt;Sistema de ventas &lt;br&gt;electrónicas&lt;/b&gt;" style="html=1;dropTarget=0;whiteSpace=wrap;" vertex="1" parent="1">
          <mxGeometry x="-180" y="220" width="190" height="80" as="geometry" />
        </mxCell>
        <mxCell id="Gjx-U46WMmEQtKeVA8HG-16" value="" style="shape=module;jettyWidth=8;jettyHeight=4;" vertex="1" parent="Gjx-U46WMmEQtKeVA8HG-15">
          <mxGeometry x="1" width="20" height="20" relative="1" as="geometry">
            <mxPoint x="-27" y="7" as="offset" />
          </mxGeometry>
        </mxCell>
      </root>
    </mxGraphModel>
  </diagram>
</mxfile>
